PathFileType	4	(X/Y/Z)	Walk1.trc
DataRate	CameraRate	NumFrames	NumMarkers	Units	OrigDataRate	OrigDataStartFrame	OrigNumFrames
200.000000	200.000000	5	56	mm	200.000000	632	966
Frame#	Times		LToe		LBHD		RLFC		LACR1		RTH2		C7		LElbow		LUA1		RWRU		LCAR		RMT1		RCAL		LMFC		LWRU		RMT5		RMFC		RTB2		RToe		LWRR		RCAR		RTB3		RTB4		LTH4		RTB1		RFA1		LTH1		LPSI		RElbow		LFHD		RBHD		RPSI		RElbowM		LTH3		T10		RACR1		LASI		LMMAL		LTH2		RTH3		LLFC		LCAL		RMMAL		RBack		RTH1		LTB2		LTB3		RTH4		RFHD		RLMAL		LMT5		RASI		RWRR		LMT1		LLMAL		LTB1		LTB4
			X1	Y1	Z1	X2	Y2	Z2	X3	Y3	Z3	X4	Y4	Z4	X5	Y5	Z5	X6	Y6	Z6	X7	Y7	Z7	X8	Y8	Z8	X9	Y9	Z9	X10	Y10	Z10	X11	Y11	Z11	X12	Y12	Z12	X13	Y13	Z13	X14	Y14	Z14	X15	Y15	Z15	X16	Y16	Z16	X17	Y17	Z17	X18	Y18	Z18	X19	Y19	Z19	X20	Y20	Z20	X21	Y21	Z21	X22	Y22	Z22	X23	Y23	Z23	X24	Y24	Z24	X25	Y25	Z25	X26	Y26	Z26	X27	Y27	Z27	X28	Y28	Z28	X29	Y29	Z29	X30	Y30	Z30	X31	Y31	Z31	X32	Y32	Z32	X33	Y33	Z33	X34	Y34	Z34	X35	Y35	Z35	X36	Y36	Z36	X37	Y37	Z37	X38	Y38	Z38	X39	Y39	Z39	X40	Y40	Z40	X41	Y41	Z41	X42	Y42	Z42	X43	Y43	Z43	X44	Y44	Z44	X45	Y45	Z45	X46	Y46	Z46	X47	Y47	Z47	X48	Y48	Z48	X49	Y49	Z49	X50	Y50	Z50	X51	Y51	Z51	X52	Y52	Z52	X53	Y53	Z53	X54	Y54	Z54	X55	Y55	Z55	X56	Y56	Z56

632	3.16	-152.94	131.29	-60.631	-562.32	1600	-48.728	-692.39	492.37	135.78	-551.3	1395.2	-155.9	-607.44	630.7	124.68	-630.33	1461.2	14.972	-729.95	1107.3	-274.26	-644.03	1218.2	-236.72	-556.93	803.29	300.57	-762.99	970.29	-286.34	-753.44	24.081	46.02	-960.94	45.334	37.346	-486.19	486.67	5.6361	-699.6	786.96	-285.63	-794.88	17.607	129.09	-719.13	467.65	11.507	-759.04	259.61	119.36	-697.81	21.234	84.197	-762.9	826.45	-290.91	-483.63	797.16	318.58	-798.77	182.74	43.327	-752.85	258.3	45.109	-520.57	659	-156.28	-703.84	342.73	49.665	-591.96	919.46	325.53	-552.79	745.89	-171.1	-749.62	1021.4	-37.62	-646.1	1072.5	320.67	-385.64	1573.1	-11.977	-568.38	1591.6	87.645	-758.37	1027.4	30.855	-683.3	1068.3	243.02	-490.92	571.21	-135.1	-729.67	1207	11.665	-530.25	1397.2	167.38	-554.64	1006.5	-139.43	-315.01	93.189	-17.195	-471.41	683.03	-107.63	-683.9	539.8	141.31	-482.41	513.24	-123.38	-379.09	23.474	-46.416	-874.02	73.965	16.226	-663.53	1350	166.68	-663.4	725.09	181.16	-380.01	321.92	-114.67	-344.35	235.49	-45.749	-670.86	630.91	163.53	-388.73	1570	62.782	-899.81	77.29	94.772	-211.85	79.072	-114.59	-586.65	969.88	172.11	-489.39	839.8	266.54	-181.56	90.942	-40.077	-333.62	74.816	-97.983	-394.34	414.01	-43.345	-370	324.75	-43.891
633	3.165	-150.99	127.78	-60.672	-556.57	1599.4	-49.873	-688.92	491.97	135.58	-545.43	1394.4	-156.86	-603.2	629.9	124.41	-624.58	1460.7	13.877	-724.45	1106.6	-274.69	-638.39	1217.4	-237.37	-551.9	803	300.18	-757.76	969.57	-286.71	-753.41	24.101	46.032	-960.72	46.817	37.396	-480.2	486.6	6.0091	-694.82	786.08	-285.78	-795	17.517	128.98	-715.82	467.35	11.354	-757.21	259.63	119.31	-697.8	21.207	84.172	-758.01	825.75	-291.14	-478.66	796.75	318.32	-797.59	183.09	43.288	-751.09	258.33	44.987	-514.15	659.17	-156.26	-701.47	342.33	49.563	-586.71	919.26	324.96	-546.22	746.07	-171.4	-743.81	1020.9	-38.08	-640.56	1072.4	319.85	-379.89	1572.8	-12.96	-562.74	1591.2	86.502	-752.65	1026.9	30.37	-677.72	1068.1	242.17	-484.62	571.42	-134.76	-723.9	1206.5	11.042	-524.46	1396.9	166.42	-548.79	1005.8	-139.8	-313.28	91.128	-16.657	-464.91	683.31	-107.76	-680.16	539.4	141.17	-476.59	512.77	-123.07	-378.45	22.926	-45.949	-873.63	74.866	16.28	-657.77	1349.7	165.81	-658.76	724.62	180.75	-375.89	320.58	-114.02	-341.27	233.8	-45.101	-666.66	630.45	163.23	-383.03	1569.8	61.809	-899.39	78.299	94.852	-210.84	76.225	-114.66	-581.01	969.36	171.74	-484.33	839.36	266.27	-179.81	87.806	-40.366	-332.3	73.34	-97.474	-389.55	412.77	-42.81	-366.02	323.31	-43.286
634	3.17	-149.03	124.2	-60.56	-550.81	1598.9	-51.032	-685.27	491.57	135.36	-539.54	1393.7	-157.84	-598.85	629.15	124.12	-618.82	1460.2	12.759	-718.87	1105.8	-275.13	-632.7	1216.6	-238.03	-546.94	802.72	299.75	-752.43	968.83	-287.1	-753.37	24.114	46.053	-960.44	48.494	37.437	-474.37	486.5	6.301	-689.91	785.18	-285.94	-795.14	17.438	128.85	-712.32	467.06	11.187	-755.27	259.72	119.25	-697.8	21.171	84.145	-753.01	825.02	-291.38	-473.76	796.34	318.02	-796.32	183.52	43.244	-749.2	258.42	44.859	-507.84	659.33	-156.14	-698.94	341.96	49.457	-581.5	919.09	324.36	-539.66	746.25	-171.56	-738	1020.6	-38.527	-635.05	1072.4	319.01	-374.13	1572.6	-13.958	-557.09	1590.8	85.343	-746.92	1026.5	29.898	-672.17	1068.1	241.3	-478.5	571.59	-134.37	-718.13	1206.2	10.41	-518.68	1396.7	165.46	-542.92	1005.1	-140.17	-311.59	89.14	-16.158	-458.38	683.52	-107.89	-676.26	539.01	141.02	-470.88	512.36	-122.79	-377.88	22.598	-45.582	-873.18	75.888	16.339	-652.02	1349.6	164.92	-654.04	724.16	180.32	-371.76	319.35	-113.4	-338.23	232.19	-44.476	-662.32	630.01	162.91	-377.32	1569.6	60.821	-898.91	79.441	94.936	-209.8	73.335	-114.64	-575.3	968.85	171.32	-479.32	838.93	265.96	-178.09	84.662	-40.545	-330.95	71.982	-97.011	-384.84	411.61	-42.282	-362.08	321.94	-42.693
635	3.175	-147.03	120.61	-60.311	-545.06	1598.5	-52.204	-681.41	491.18	135.11	-533.64	1392.9	-158.83	-594.34	628.44	123.81	-613.05	1459.8	11.62	-713.2	1105	-275.56	-626.94	1215.8	-238.69	-542.05	802.47	299.29	-747	968.07	-287.5	-753.32	24.119	46.083	-960.1	50.389	37.471	-468.73	486.39	6.4998	-684.89	784.28	-286.1	-795.28	17.375	128.7	-708.6	466.77	11.007	-753.19	259.88	119.2	-697.81	21.123	84.118	-747.88	824.27	-291.62	-468.94	795.94	317.68	-794.93	184.05	43.193	-747.18	258.57	44.727	-501.67	659.48	-155.93	-696.23	341.62	49.347	-576.35	918.95	323.73	-533.17	746.45	-171.6	-732.2	1020.2	-38.961	-629.56	1072.3	318.14	-368.36	1572.4	-14.969	-551.45	1590.4	84.172	-741.17	1026.1	29.441	-666.65	1068.1	240.41	-472.56	571.71	-133.95	-712.34	1205.9	9.768	-512.91	1396.5	164.5	-537.04	1004.5	-140.52	-309.89	87.263	-15.708	-451.87	683.65	-108.04	-672.17	538.64	140.85	-465.31	512	-122.57	-377.32	22.495	-45.303	-872.64	77.045	16.41	-646.28	1349.4	164.01	-649.22	723.73	179.88	-367.59	318.23	-112.82	-335.2	230.7	-43.891	-657.85	629.58	162.58	-371.61	1569.4	59.82	-898.35	80.733	95.026	-208.68	70.442	-114.52	-569.54	968.35	170.87	-474.38	838.51	265.6	-176.38	81.56	-40.619	-329.5	70.761	-96.604	-380.17	410.53	-41.783	-358.18	320.67	-42.133
636	3.18	-144.99	117.05	-59.948	-539.3	1598.1	-53.385	-677.32	490.81	134.85	-527.72	1392.3	-159.83	-589.68	627.78	123.48	-607.26	1459.4	10.461	-707.44	1104.1	-275.99	-621.13	1214.9	-239.35	-537.23	802.24	298.8	-741.46	967.3	-287.9	-753.27	24.115	46.123	-959.67	52.528	37.5	-463.3	486.27	6.5993	-679.74	783.38	-286.27	-795.42	17.336	128.52	-704.65	466.5	10.815	-750.95	260.12	119.14	-697.84	21.063	84.089	-742.64	823.5	-291.86	-464.19	795.55	317.29	-793.41	184.7	43.138	-745	258.81	44.597	-495.66	659.61	-155.65	-693.34	341.33	49.236	-571.25	918.84	323.07	-526.77	746.65	-171.53	-726.4	1020	-39.382	-624.09	1072.3	317.25	-362.59	1572.3	-15.991	-545.79	1590.1	82.992	-735.43	1025.8	29.001	-661.15	1068.1	239.51	-466.82	571.78	-133.51	-706.56	1205.6	9.1184	-507.14	1396.3	163.54	-531.15	1003.9	-140.83	-308.16	85.52	-15.318	-445.42	683.71	-108.18	-667.87	538.28	140.67	-459.85	511.71	-122.4	-376.72	22.605	-45.106	-872.01	78.352	16.495	-640.56	1349.3	163.07	-644.29	723.32	179.41	-363.38	317.24	-112.3	-332.17	229.34	-43.364	-653.21	629.16	162.22	-365.88	1569.4	58.807	-897.69	82.191	95.126	-207.46	67.58	-114.33	-563.72	967.87	170.38	-469.49	838.1	265.21	-174.65	78.534	-40.598	-327.96	69.68	-96.26	-375.53	409.56	-41.331	-354.28	319.52	-41.621
